<svg width="225" height="128" viewBox="0 0 225 128" fill="none" xmlns="http://www.w3.org/2000/svg">
<path d="M52.2793 61.9636C51.801 62.4466 51.4347 63.0295 51.2065 63.6708C50.9783 64.3121 50.8938 64.996 50.9591 65.6738L50.9364 65.651C51.0035 66.4489 50.8963 67.2518 50.6223 68.0038C50.3482 68.7558 49.914 69.4387 49.3499 70.0049C48.7857 70.571 48.1052 71.0068 47.3559 71.2818C46.6066 71.5568 45.8066 71.6644 45.0116 71.5971L45.0343 71.6199C44.0833 71.531 43.1282 71.7387 42.2991 72.2146C41.4701 72.6905 40.8075 73.4114 40.4016 74.2791C39.9958 75.1468 39.8665 76.119 40.0314 77.0631C40.1962 78.0072 40.6472 78.8773 41.3229 79.5548C41.9985 80.2322 42.8659 80.6841 43.8068 80.8487C44.7477 81.0133 45.7163 80.8826 46.5805 80.4746C47.4447 80.0665 48.1625 79.4008 48.6359 78.5684C49.1094 77.7359 49.3154 76.7772 49.2261 75.8229L49.2501 75.8457C49.183 75.0478 49.2901 74.2449 49.5642 73.4929C49.8382 72.7409 50.2724 72.058 50.8366 71.4918C51.4007 70.9257 52.0812 70.4899 52.8305 70.2149C53.5798 69.9399 54.3798 69.8323 55.1748 69.8997L55.1509 69.8769C55.9277 69.947 56.7096 69.8191 57.4241 69.5052C58.1386 69.1913 58.7625 68.7015 59.2382 68.0811C59.7138 67.4608 60.0257 66.7299 60.145 65.9564C60.2642 65.1828 60.187 64.3916 59.9204 63.656C59.6538 62.9204 59.2065 62.2642 58.62 61.7483C58.0334 61.2323 57.3266 60.8734 56.5649 60.7046C55.8033 60.5358 55.0116 60.5627 54.2631 60.7828C53.5146 61.0029 52.8336 61.409 52.2831 61.9636H52.2793Z" fill="#1E1B1B"/>
<path d="M42.9678 68.633L42.9439 68.6102C43.6196 68.6785 44.3019 68.5953 44.9417 68.3665C45.5814 68.1378 46.1624 67.7692 46.6428 67.2874C47.1232 66.8057 47.4909 66.2228 47.7193 65.581C47.9478 64.9391 48.0312 64.2544 47.9636 63.5762L47.9876 63.599C47.9205 62.8012 48.0277 61.9982 48.3017 61.2462C48.5757 60.4943 49.01 59.8113 49.5741 59.2452C50.1383 58.679 50.8188 58.2432 51.568 57.9682C52.3173 57.6932 53.1174 57.5856 53.9124 57.653L53.8884 57.6302C54.8395 57.7198 55.7949 57.5128 56.6245 57.0375C57.454 56.5621 58.1172 55.8415 58.5236 54.974C58.9301 54.1064 59.06 53.1342 58.8956 52.1898C58.7312 51.2455 58.2806 50.375 57.6052 49.6971C56.9297 49.0192 56.0623 48.567 55.1214 48.402C54.1804 48.2371 53.2116 48.3674 52.3471 48.7753C51.4827 49.1832 50.7647 49.8488 50.291 50.6813C49.8174 51.5138 49.6111 52.4727 49.7004 53.4272L49.6777 53.4031C49.7451 54.201 49.638 55.004 49.3641 55.7561C49.0901 56.5082 48.6559 57.1912 48.0917 57.7574C47.5275 58.3237 46.8469 58.7594 46.0975 59.0344C45.3481 59.3093 44.548 59.4167 43.7529 59.3491L43.7757 59.3732C43.1 59.3049 42.4176 59.3881 41.7779 59.6169C41.1381 59.8456 40.5571 60.2142 40.0767 60.696C39.5963 61.1777 39.2286 61.7606 39.0002 62.4024C38.7717 63.0443 38.6883 63.729 38.7559 64.4072L38.7332 64.3844C38.8 65.1822 38.6927 65.985 38.4186 66.7369C38.1445 67.4888 37.7103 68.1716 37.1462 68.7377C36.5821 69.3039 35.9017 69.7397 35.1525 70.0147C34.4033 70.2898 33.6033 70.3975 32.8084 70.3304L32.8311 70.3532C31.88 70.2636 30.9246 70.4706 30.0951 70.9459C29.2655 71.4213 28.6023 72.1419 28.1959 73.0094C27.7894 73.877 27.6595 74.8492 27.8239 75.7936C27.9883 76.7379 28.4389 77.6084 29.1144 78.2863C29.7898 78.9641 30.6572 79.4164 31.5982 79.5814C32.5392 79.7463 33.5079 79.616 34.3724 79.2081C35.2368 78.8002 35.9548 78.1346 36.4285 77.3021C36.9022 76.4696 37.1084 75.5107 37.0191 74.5562L37.0431 74.579C36.976 73.7812 37.0831 72.9782 37.3572 72.2263C37.6312 71.4743 38.0654 70.7914 38.6296 70.2252C39.1937 69.659 39.8742 69.2232 40.6235 68.9482C41.3728 68.6732 42.1728 68.5656 42.9678 68.633Z" fill="#1E1B1B"/>
<path d="M34.5089 66.0907C34.9873 65.6078 35.3535 65.0248 35.5815 64.3835C35.8095 63.7421 35.8937 63.0582 35.8279 62.3804L35.8518 62.4032C35.7847 61.6051 35.8919 60.802 36.1661 60.0498C36.4403 59.2976 36.8747 58.6146 37.4392 58.0483C38.0036 57.4821 38.6844 57.0464 39.434 56.7716C40.1836 56.4967 40.9839 56.3894 41.7792 56.4572L41.7552 56.4344C42.7059 56.5238 43.6609 56.3167 44.4901 55.8414C45.3192 55.366 45.9821 54.6456 46.3883 53.7783C46.7945 52.9111 46.9243 51.9392 46.7599 50.9952C46.5955 50.0512 46.145 49.181 45.4698 48.5034C44.7946 47.8258 43.9276 47.3736 42.987 47.2087C42.0463 47.0437 41.0779 47.174 40.2137 47.5816C39.3496 47.9893 38.6317 48.6545 38.1581 49.4867C37.6845 50.3188 37.4781 51.2772 37.5672 52.2314L37.5445 52.2086C37.6116 53.0064 37.5044 53.8094 37.2304 54.5613C36.9563 55.3133 36.5221 55.9962 35.958 56.5624C35.3938 57.1286 34.7133 57.5644 33.964 57.8394C33.2147 58.1144 32.4147 58.222 31.6197 58.1546L31.6424 58.1774C30.8656 58.1075 30.0838 58.2355 29.3694 58.5495C28.655 58.8636 28.0312 59.3535 27.5557 59.9739C27.0802 60.5944 26.7685 61.3252 26.6493 62.0987C26.5302 62.8723 26.6076 63.6635 26.8742 64.399C27.1409 65.1345 27.5883 65.7906 28.1749 66.3064C28.7614 66.8223 29.4683 67.1812 30.2299 67.3499C30.9914 67.5186 31.7831 67.4916 32.5316 67.2715C33.28 67.0514 33.961 66.6452 34.5114 66.0907H34.5089Z" fill="#1E1B1B"/>
<path d="M73.6079 53.4563H77.3566V71.7644H73.6079V53.4563Z" fill="#1E1B1B"/>
<path d="M79.4797 65.4952C79.4744 64.1795 79.8584 62.8918 80.5829 61.7953C81.3074 60.6988 82.3399 59.8428 83.5496 59.3356C84.7593 58.8285 86.0917 58.6931 87.3782 58.9465C88.6646 59.2 89.8472 59.8309 90.776 60.7593C91.7049 61.6878 92.3383 62.872 92.596 64.1621C92.8537 65.4521 92.7241 66.7898 92.2236 68.0059C91.7231 69.2219 90.8743 70.2616 89.7846 70.9931C88.6949 71.7246 87.4134 72.1151 86.1025 72.1151C85.2322 72.125 84.3687 71.9608 83.5625 71.632C82.7562 71.3032 82.0234 70.8163 81.4067 70.2C80.7901 69.5836 80.3021 68.8501 79.9712 68.0423C79.6403 67.2345 79.4732 66.3685 79.4797 65.4952ZM88.9765 65.4952C88.9609 64.928 88.779 64.3781 88.4536 63.9142C88.1283 63.4502 87.6739 63.0928 87.1473 62.8867C86.6206 62.6805 86.0451 62.6347 85.4926 62.755C84.9402 62.8753 84.4353 63.1563 84.0412 63.563C83.647 63.9697 83.3811 64.4839 83.2765 65.0415C83.172 65.599 83.2336 66.1751 83.4536 66.6978C83.6735 67.2204 84.0421 67.6663 84.5133 67.9799C84.9844 68.2934 85.5372 68.4606 86.1025 68.4606C86.4896 68.4709 86.8747 68.4007 87.2334 68.2543C87.5922 68.1078 87.9168 67.8884 88.1868 67.6098C88.4569 67.3312 88.6664 66.9994 88.8024 66.6355C88.9383 66.2715 88.9976 65.8833 88.9765 65.4952Z" fill="#1E1B1B"/>
<path d="M107.666 59.225V71.1323C107.666 75.3454 104.392 77.1264 101.068 77.1264C99.8981 77.2143 98.7265 76.9771 97.6818 76.4408C96.6372 75.9046 95.7598 75.0899 95.146 74.0863L98.3444 72.2305C98.6024 72.7537 99.0135 73.1853 99.5226 73.4676C100.032 73.7499 100.615 73.8694 101.193 73.8101C101.563 73.8615 101.94 73.8289 102.295 73.7145C102.651 73.6001 102.976 73.407 103.247 73.1494C103.518 72.8918 103.728 72.5763 103.861 72.2262C103.995 71.8762 104.048 71.5006 104.017 71.1272V69.9808C103.578 70.5198 103.019 70.9481 102.385 71.2312C101.752 71.5143 101.061 71.6444 100.368 71.6111C98.7191 71.5589 97.1553 70.8649 96.0075 69.6761C94.8596 68.4872 94.2178 66.8967 94.2178 65.2413C94.2178 63.5859 94.8596 61.9954 96.0075 60.8066C97.1553 59.6177 98.7191 58.9238 100.368 58.8716C101.061 58.8382 101.752 58.9683 102.385 59.2514C103.019 59.5346 103.578 59.9628 104.017 60.5019V59.2225L107.666 59.225ZM104.018 65.2432C104.043 64.6369 103.887 64.0369 103.57 63.5204C103.252 63.004 102.788 62.5946 102.237 62.3452C101.686 62.0957 101.073 62.0175 100.477 62.1206C99.8808 62.2237 99.3293 62.5035 98.8931 62.9238C98.457 63.3441 98.1562 63.8858 98.0294 64.4792C97.9027 65.0725 97.9557 65.6904 98.1818 66.2532C98.4079 66.816 98.7966 67.2981 99.298 67.6373C99.7994 67.9766 100.39 68.1574 100.995 68.1567C101.389 68.1843 101.784 68.1288 102.155 67.9938C102.527 67.8587 102.866 67.6472 103.15 67.3727C103.435 67.0982 103.659 66.7669 103.809 66.4002C103.958 66.0334 104.03 65.6393 104.018 65.2432Z" fill="#1E1B1B"/>
<path d="M109.789 65.4952C109.784 64.1795 110.167 62.8918 110.892 61.7953C111.617 60.6988 112.649 59.8428 113.859 59.3356C115.068 58.8285 116.401 58.6931 117.687 58.9465C118.974 59.2 120.156 59.8309 121.085 60.7593C122.014 61.6878 122.647 62.872 122.905 64.1621C123.163 65.4521 123.033 66.7898 122.533 68.0059C122.032 69.2219 121.183 70.2616 120.094 70.9931C119.004 71.7246 117.723 72.1151 116.412 72.1151C115.541 72.125 114.678 71.9608 113.872 71.632C113.065 71.3032 112.332 70.8163 111.716 70.2C111.099 69.5836 110.611 68.8501 110.28 68.0423C109.949 67.2345 109.782 66.3685 109.789 65.4952ZM119.286 65.4952C119.27 64.928 119.088 64.3781 118.763 63.9142C118.437 63.4502 117.983 63.0928 117.456 62.8867C116.93 62.6805 116.354 62.6347 115.802 62.755C115.249 62.8753 114.744 63.1563 114.35 63.563C113.956 63.9697 113.69 64.4839 113.586 65.0415C113.481 65.599 113.543 66.1751 113.763 66.6978C113.983 67.2204 114.351 67.6663 114.822 67.9799C115.293 68.2934 115.846 68.4606 116.412 68.4606C116.799 68.4709 117.184 68.4007 117.543 68.2543C117.901 68.1078 118.226 67.8884 118.496 67.6098C118.766 67.3312 118.976 66.9994 119.111 66.6355C119.247 66.2715 119.307 65.8833 119.286 65.4952Z" fill="#1E1B1B"/>
<path d="M124.783 55.8642C124.783 55.4178 124.915 54.9814 125.162 54.6102C125.409 54.2389 125.76 53.9496 126.171 53.7788C126.582 53.6079 127.034 53.5632 127.471 53.6503C127.907 53.7374 128.308 53.9524 128.622 54.2681C128.937 54.5838 129.151 54.986 129.238 55.4239C129.325 55.8617 129.28 56.3156 129.11 56.7281C128.94 57.1406 128.651 57.4931 128.282 57.7411C127.912 57.9892 127.477 58.1216 127.032 58.1216C126.437 58.1156 125.869 57.8759 125.448 57.4538C125.028 57.0318 124.789 56.4611 124.783 55.8642ZM125.161 59.2249H128.911V71.7655H125.156L125.161 59.2249Z" fill="#1E1B1B"/>
<path d="M145.098 65.4951C145.141 66.3239 145.021 67.1531 144.744 67.9351C144.467 68.717 144.038 69.4363 143.483 70.0515C142.928 70.6667 142.257 71.1658 141.51 71.5199C140.762 71.874 139.951 72.0763 139.125 72.1151C138.431 72.1531 137.736 72.0355 137.092 71.7709C136.449 71.5062 135.871 71.1011 135.403 70.5848V76.7804H131.654V59.2248H135.403V60.4029C135.872 59.887 136.449 59.4822 137.093 59.2178C137.736 58.9534 138.431 58.8359 139.125 58.8739C139.951 58.9125 140.762 59.1147 141.51 59.4689C142.258 59.823 142.929 60.3222 143.484 60.9376C144.039 61.5529 144.468 62.2724 144.745 63.0546C145.022 63.8368 145.142 64.6662 145.098 65.4951ZM141.349 65.4951C141.335 64.9082 141.148 64.3387 140.812 63.8578C140.477 63.3769 140.007 63.0061 139.463 62.7916C138.918 62.5772 138.322 62.5287 137.751 62.6523C137.179 62.7759 136.656 63.066 136.247 63.4863C135.839 63.9066 135.563 64.4385 135.454 65.0154C135.346 65.5922 135.409 66.1885 135.636 66.7294C135.864 67.2704 136.245 67.7321 136.732 68.0567C137.22 68.3812 137.792 68.5543 138.377 68.5543C138.778 68.5722 139.179 68.5048 139.553 68.3563C139.927 68.2079 140.265 67.9818 140.546 67.693C140.827 67.4041 141.043 67.059 141.182 66.6802C141.32 66.3015 141.377 65.8976 141.349 65.4951Z" fill="#1E1B1B"/>
<path d="M156.666 68.0021C156.666 70.8865 154.168 72.1152 151.469 72.1152C150.379 72.2143 149.284 71.9829 148.326 71.4509C147.368 70.9188 146.592 70.1106 146.096 69.1308L149.344 67.275C149.475 67.7279 149.757 68.1219 150.143 68.3912C150.529 68.6605 150.996 68.7887 151.464 68.7546C152.363 68.7546 152.814 68.4784 152.814 67.9781C152.814 66.5973 146.665 67.3257 146.665 62.9872C146.665 60.2523 148.965 58.8741 151.564 58.8741C152.541 58.8431 153.508 59.0756 154.365 59.5475C155.222 60.0194 155.937 60.7133 156.436 61.557L153.238 63.2874C153.097 62.9589 152.864 62.6791 152.566 62.4829C152.269 62.2867 151.92 62.1828 151.564 62.184C150.914 62.184 150.514 62.4374 150.514 62.8858C150.519 64.316 156.666 63.3621 156.666 68.0021Z" fill="#1E1B1B"/>
<path d="M170.36 59.2251V71.7657H166.611V70.5864C166.179 71.1068 165.629 71.5168 165.009 71.7828C164.388 72.0488 163.713 72.1632 163.039 72.1166C160.515 72.1166 158.369 70.3115 158.369 66.923V59.2251H162.118V66.372C162.086 66.6707 162.12 66.9726 162.217 67.2568C162.314 67.541 162.471 67.8007 162.678 68.0177C162.885 68.2347 163.136 68.4039 163.415 68.5134C163.693 68.623 163.992 68.6703 164.291 68.6521C165.666 68.6521 166.615 67.8503 166.615 66.0692V59.2289L170.36 59.2251Z" fill="#1E1B1B"/>
<path d="M191.855 64.0651V71.7643H188.106V64.3907C188.106 63.1366 187.507 62.3348 186.308 62.3348C185.058 62.3348 184.358 63.2126 184.358 64.6922V71.7643H180.61V64.3907C180.61 63.1366 180.01 62.3348 178.81 62.3348C177.561 62.3348 176.861 63.2126 176.861 64.6922V71.7643H173.113V59.2237H176.861V60.3764C177.25 59.865 177.76 59.4595 178.345 59.1968C178.93 58.9342 179.571 58.8228 180.21 58.8728C180.851 58.8413 181.49 58.9772 182.064 59.2671C182.637 59.557 183.126 59.9912 183.483 60.5272C183.898 59.9664 184.448 59.5205 185.082 59.2312C185.716 58.9419 186.412 58.8186 187.107 58.8728C189.976 58.8741 191.855 60.93 191.855 64.0651Z" fill="#1E1B1B"/>
<path d="M195.026 59.1477C196.562 59.1477 197.807 57.8977 197.807 56.3558C197.807 54.8139 196.562 53.564 195.026 53.564C193.489 53.564 192.244 54.8139 192.244 56.3558C192.244 57.8977 193.489 59.1477 195.026 59.1477Z" fill="#1E1B1B"/>
</svg>
