<svg width="227" height="129" viewBox="0 0 227 129" fill="none" xmlns="http://www.w3.org/2000/svg">
<path d="M71.197 54.5134H75.004V72.992H71.197V54.5134Z" fill="#1E1B1B"/>
<path d="M77.1356 66.6618C77.1356 65.3323 77.5273 64.0328 78.2611 62.9279C78.9948 61.8231 80.0376 60.9626 81.2571 60.4556C82.4767 59.9486 83.8182 59.8179 85.1115 60.0801C86.4049 60.3423 87.5919 60.9855 88.522 61.9283C89.4522 62.871 90.0837 64.0709 90.3365 65.3757C90.5892 66.6806 90.4518 68.0316 89.9417 69.2577C89.4317 70.4838 88.5718 71.5296 87.4713 72.2627C86.3707 72.9958 85.0789 73.3831 83.7597 73.3755C82.8847 73.3824 82.0171 73.2131 81.2078 72.8777C80.3986 72.5423 79.664 72.0474 79.047 71.4221C78.43 70.7968 77.9432 70.0536 77.6149 69.2362C77.2867 68.4188 77.1238 67.5435 77.1356 66.6618ZM86.6783 66.6618C86.6633 66.0887 86.481 65.5327 86.1541 65.0634C85.8272 64.5941 85.3703 64.2324 84.8405 64.0234C84.3107 63.8145 83.7315 63.7676 83.1754 63.8886C82.6192 64.0096 82.1109 64.2932 81.7138 64.7038C81.3168 65.1145 81.0487 65.634 80.9431 66.1974C80.8375 66.7607 80.899 67.343 81.1201 67.8713C81.3411 68.3996 81.7118 68.8505 82.1858 69.1676C82.6598 69.4848 83.2161 69.654 83.785 69.6542C84.1724 69.6618 84.5572 69.5888 84.9153 69.4398C85.2734 69.2907 85.5971 69.0689 85.8663 68.788C86.1355 68.5072 86.3442 68.1734 86.4796 67.8076C86.6149 67.4417 86.6739 67.0517 86.6529 66.6618H86.6783Z" fill="#1E1B1B"/>
<path d="M105.447 60.332V72.3655C105.447 76.6111 102.147 78.4142 98.8099 78.4142C97.6327 78.5115 96.452 78.2758 95.4005 77.7336C94.349 77.1914 93.4686 76.3642 92.8584 75.3451L96.0689 73.478C96.3291 74.0066 96.7429 74.4428 97.2553 74.7283C97.7676 75.0139 98.3542 75.1354 98.9368 75.0765C99.3079 75.1226 99.6846 75.0855 100.04 74.9678C100.395 74.8501 100.72 74.6547 100.992 74.3957C101.263 74.1366 101.475 73.8203 101.611 73.4694C101.747 73.1184 101.805 72.7414 101.779 72.3655V71.2018C101.336 71.743 100.774 72.1728 100.138 72.4569C99.501 72.7411 98.8074 72.8718 98.112 72.8386C96.4292 72.8386 94.8154 72.165 93.6255 70.9659C92.4356 69.7668 91.7671 68.1404 91.7671 66.4447C91.7671 64.7489 92.4356 63.1225 93.6255 61.9234C94.8154 60.7243 96.4292 60.0507 98.112 60.0507C98.8074 60.0176 99.501 60.1482 100.138 60.4324C100.774 60.7165 101.336 61.1463 101.779 61.6875V60.4088L105.447 60.332ZM101.779 66.4063C101.805 65.7945 101.648 65.189 101.329 64.6678C101.01 64.1465 100.544 63.7333 99.9899 63.4813C99.4361 63.2293 98.8201 63.15 98.2212 63.2535C97.6223 63.3571 97.0679 63.6389 96.6292 64.0626C96.1905 64.4862 95.8876 65.0325 95.7594 65.6311C95.6312 66.2296 95.6837 66.8532 95.91 67.4214C96.1363 67.9897 96.5261 68.4768 97.0293 68.8201C97.5325 69.1633 98.1261 69.347 98.7338 69.3475C99.1303 69.3763 99.5283 69.321 99.9023 69.1851C100.276 69.0492 100.618 68.8357 100.905 68.5586C101.192 68.2814 101.418 67.9466 101.569 67.5759C101.719 67.2052 101.791 66.8067 101.779 66.4063Z" fill="#1E1B1B"/>
<path d="M107.591 66.6619C107.591 65.3335 107.982 64.035 108.715 62.9307C109.447 61.8263 110.489 60.9658 111.707 60.4581C112.925 59.9503 114.265 59.8181 115.558 60.0782C116.85 60.3383 118.037 60.979 118.968 61.9192C119.9 62.8594 120.533 64.0568 120.789 65.36C121.044 66.6632 120.911 68.0134 120.404 69.24C119.898 70.4665 119.042 71.5142 117.945 72.2503C116.848 72.9865 115.559 73.3781 114.24 73.3756C113.364 73.3841 112.494 73.2162 111.683 72.8817C110.871 72.5472 110.134 72.0528 109.515 71.4275C108.896 70.8022 108.407 70.0586 108.076 69.2402C107.746 68.4219 107.581 67.5453 107.591 66.6619ZM117.134 66.6619C117.119 66.0882 116.936 65.5317 116.609 65.0622C116.281 64.5927 115.823 64.2309 115.293 64.0224C114.762 63.8138 114.183 63.7677 113.626 63.8897C113.07 64.0118 112.561 64.2966 112.165 64.7085C111.768 65.1204 111.501 65.6411 111.397 66.2053C111.293 66.7695 111.356 67.3522 111.579 67.8803C111.802 68.4083 112.175 68.8584 112.651 69.1739C113.126 69.4895 113.684 69.6566 114.253 69.6543C114.641 69.6619 115.025 69.5889 115.383 69.4399C115.741 69.2908 116.065 69.069 116.334 68.7881C116.604 68.5073 116.812 68.1735 116.948 67.8077C117.083 67.4418 117.142 67.0518 117.121 66.6619H117.134Z" fill="#1E1B1B"/>
<path d="M122.654 56.943C122.654 56.4928 122.786 56.0527 123.034 55.6784C123.283 55.3041 123.635 55.0123 124.048 54.84C124.461 54.6677 124.915 54.6227 125.353 54.7105C125.791 54.7983 126.194 55.0151 126.51 55.3334C126.826 55.6518 127.041 56.0574 127.128 56.4989C127.215 56.9405 127.17 57.3982 126.999 57.8141C126.828 58.23 126.539 58.5855 126.167 58.8356C125.796 59.0858 125.359 59.2193 124.913 59.2193C124.316 59.2126 123.745 58.9707 123.323 58.5452C122.9 58.1198 122.66 57.5446 122.654 56.943ZM123.022 60.3318H126.829V72.9919H123.022V60.3318Z" fill="#1E1B1B"/>
<path d="M143.122 66.662C143.165 67.504 143.042 68.3462 142.761 69.14C142.479 69.9339 142.044 70.6639 141.482 71.2878C140.919 71.9118 140.24 72.4175 139.483 72.7758C138.725 73.1342 137.905 73.338 137.069 73.3757C136.36 73.4232 135.65 73.3088 134.99 73.0409C134.331 72.7729 133.741 72.3585 133.262 71.8284V78.0817H129.456V60.332H133.262V61.5213C133.741 60.9928 134.332 60.5802 134.991 60.3144C135.651 60.0487 136.361 59.9367 137.069 59.9867C137.902 60.0245 138.719 60.2271 139.473 60.583C140.228 60.939 140.906 61.4412 141.468 62.061C142.03 62.6809 142.465 63.4063 142.749 64.1957C143.033 64.9851 143.16 65.8232 143.122 66.662ZM139.316 66.662C139.301 66.0681 139.112 65.4918 138.773 65.0055C138.435 64.5191 137.961 64.1443 137.412 63.928C136.863 63.7117 136.263 63.6635 135.687 63.7895C135.11 63.9155 134.584 64.2101 134.173 64.6363C133.762 65.0625 133.486 65.6015 133.378 66.1855C133.27 66.7696 133.335 67.3728 133.566 67.9196C133.796 68.4663 134.182 68.9323 134.674 69.2591C135.167 69.586 135.744 69.759 136.333 69.7567C136.737 69.774 137.14 69.705 137.516 69.5544C137.891 69.4038 138.231 69.1748 138.512 68.8826C138.794 68.5904 139.011 68.2415 139.15 67.8588C139.288 67.4761 139.344 67.0683 139.316 66.662Z" fill="#1E1B1B"/>
<path d="M154.708 69.1941C154.708 72.1097 152.17 73.3502 149.48 73.3502C148.383 73.4497 147.281 73.2153 146.317 72.6773C145.354 72.1393 144.572 71.3224 144.074 70.3322L147.348 68.4652C147.478 68.9215 147.759 69.319 148.145 69.5914C148.531 69.8637 148.997 69.9943 149.467 69.9614C150.368 69.9614 150.825 69.68 150.825 69.1685C150.825 67.7746 144.645 68.5163 144.645 64.1301C144.645 61.3679 146.955 59.9868 149.569 59.9868C150.563 59.9419 151.55 60.1691 152.426 60.6442C153.301 61.1193 154.033 61.8245 154.543 62.685L151.269 64.4242C151.125 64.0943 150.888 63.8136 150.589 63.6162C150.289 63.4188 149.939 63.313 149.582 63.3116C148.922 63.3116 148.528 63.5674 148.528 64.015C148.528 65.4728 154.708 64.5137 154.708 69.1941Z" fill="#1E1B1B"/>
<path d="M168.502 60.332V72.9921H164.695V71.8028C164.263 72.3292 163.713 72.7459 163.092 73.0191C162.47 73.2923 161.794 73.4145 161.117 73.3757C158.579 73.3757 156.409 71.5471 156.409 68.1327V60.332H160.216V67.5572C160.186 67.8593 160.221 68.1643 160.32 68.4512C160.418 68.7381 160.577 69 160.786 69.2188C160.995 69.4377 161.248 69.6083 161.529 69.7188C161.809 69.8294 162.11 69.8772 162.411 69.859C163.781 69.859 164.746 69.0406 164.746 67.3015V60.332H168.502Z" fill="#1E1B1B"/>
<path d="M190.074 65.2169V72.992H186.267V65.5494C186.267 64.2706 185.671 63.4778 184.465 63.4778C183.26 63.4778 182.498 64.3601 182.498 65.8563V72.992H178.692V65.5494C178.692 64.2706 178.095 63.4778 176.89 63.4778C175.684 63.4778 174.923 64.3601 174.923 65.8563V72.992H171.116V60.3319H174.923V61.4956C175.317 60.9815 175.832 60.5744 176.421 60.3109C177.01 60.0475 177.655 59.936 178.298 59.9866C178.942 59.9528 179.583 60.0883 180.16 60.3797C180.736 60.6712 181.227 61.1086 181.585 61.6491C182.003 61.0844 182.556 60.6358 183.193 60.345C183.83 60.0543 184.53 59.931 185.227 59.9866C188.196 59.9866 190.074 62.0583 190.074 65.2169Z" fill="#1E1B1B"/>
<path d="M48.5201 51.1885V45.7537H31.5159V83.0944H48.5201V77.6596C45.0368 77.6596 41.6962 76.2651 39.2331 73.783C36.77 71.3008 35.3862 67.9343 35.3862 64.424C35.3862 60.9138 36.77 57.5473 39.2331 55.0651C41.6962 52.583 45.0368 51.1885 48.5201 51.1885Z" fill="#1E1B1B"/>
<path d="M48.5203 51.1885V77.6595C52.0036 77.6595 55.3442 76.2651 57.8073 73.7829C60.2704 71.3008 61.6542 67.9343 61.6542 64.424C61.6542 60.9137 60.2704 57.5472 57.8073 55.0651C55.3442 52.5829 52.0036 51.1885 48.5203 51.1885Z" fill="#1E1B1B"/>
<path d="M193.272 60.2551C194.814 60.2551 196.064 58.9955 196.064 57.4418C196.064 55.888 194.814 54.6284 193.272 54.6284C191.731 54.6284 190.481 55.888 190.481 57.4418C190.481 58.9955 191.731 60.2551 193.272 60.2551Z" fill="#1E1B1B"/>
</svg>
