<svg width="226" height="128" viewBox="0 0 226 128" fill="none" xmlns="http://www.w3.org/2000/svg">
<path d="M81.25 56.5154H85.0569V71.8808H81.25V56.5154ZM86.567 66.0792C86.567 62.279 88.9019 60.0116 92.5058 60.0116C96.1097 60.0116 98.4446 62.279 98.4446 66.0792C98.4446 69.8794 96.1605 72.1595 92.5058 72.1595C88.8512 72.1595 86.567 69.9427 86.567 66.0792ZM94.625 66.0792C94.625 63.9891 93.8002 62.7604 92.5058 62.7604C91.2115 62.7604 90.3993 64.0271 90.3993 66.0792C90.3993 68.1313 91.1988 69.3727 92.5058 69.3727C93.8129 69.3727 94.625 68.2073 94.625 66.0919V66.0792ZM99.8786 72.6282H103.533C103.707 73.0139 104.001 73.3332 104.372 73.5387C104.742 73.7441 105.169 73.8246 105.589 73.7682C107.036 73.7682 107.797 72.9829 107.797 71.8428V69.7147H107.721C107.418 70.3669 106.925 70.9135 106.308 71.2838C105.69 71.6541 104.976 71.8311 104.257 71.7921C101.477 71.7921 99.6375 69.6767 99.6375 66.0412C99.6375 62.4057 101.389 60.1129 104.307 60.1129C105.049 60.0839 105.782 60.2818 106.408 60.6803C107.034 61.0788 107.523 61.6587 107.81 62.3423V60.2269H111.617V71.7541C111.617 74.5283 109.167 76.251 105.551 76.251C102.188 76.251 100.094 74.7436 99.8786 72.6408V72.6282ZM107.81 66.0665C107.81 64.2171 106.959 63.0517 105.614 63.0517C104.269 63.0517 103.444 64.2044 103.444 66.0665C103.444 67.9286 104.257 68.98 105.614 68.98C106.972 68.98 107.81 67.9539 107.81 66.0792V66.0665ZM113.051 66.0665C113.051 62.2663 115.385 59.9989 118.989 59.9989C122.593 59.9989 124.941 62.2663 124.941 66.0665C124.941 69.8667 122.657 72.1468 118.989 72.1468C115.322 72.1468 113.051 69.9427 113.051 66.0792V66.0665ZM121.109 66.0665C121.109 63.9764 120.284 62.7477 118.989 62.7477C117.695 62.7477 116.946 64.0271 116.946 66.0919C116.946 68.1566 117.746 69.3854 119.04 69.3854C120.334 69.3854 121.109 68.2073 121.109 66.0919V66.0665ZM126.387 57.4654C126.377 57.0817 126.482 56.7037 126.687 56.3793C126.893 56.0549 127.19 55.7987 127.542 55.6432C127.893 55.4877 128.283 55.4399 128.662 55.5059C129.041 55.5718 129.391 55.7485 129.669 56.0136C129.947 56.2787 130.14 56.6203 130.224 56.9949C130.307 57.3696 130.277 57.7606 130.138 58.1183C129.998 58.4759 129.755 58.7842 129.44 59.004C129.125 59.2238 128.751 59.3452 128.367 59.3529C128.112 59.3703 127.857 59.335 127.616 59.2491C127.376 59.1632 127.155 59.0286 126.97 58.8538C126.784 58.6789 126.636 58.4676 126.536 58.233C126.436 57.9984 126.385 57.7457 126.387 57.4908V57.4654ZM126.387 60.2522H130.194V71.8808H126.387V60.2522ZM144.014 66.0665C144.014 69.8667 142.326 72.0328 139.433 72.0328C138.691 72.0804 137.952 71.8993 137.317 71.5142C136.681 71.129 136.179 70.5584 135.879 69.8794H135.803V75.605H131.996V60.2269H135.803V62.3043H135.879C136.165 61.6141 136.658 61.0286 137.289 60.6274C137.92 60.2263 138.66 60.0289 139.407 60.0622C142.326 60.1129 144.064 62.2917 144.064 66.0919L144.014 66.0665ZM140.207 66.0665C140.207 64.2171 139.356 63.039 138.024 63.039C136.692 63.039 135.841 64.2298 135.829 66.0665C135.816 67.9033 136.692 69.0813 138.024 69.0813C139.356 69.0813 140.207 67.9286 140.207 66.0919V66.0665ZM150.549 59.9862C153.709 59.9862 155.625 61.481 155.714 63.8751H152.249C152.249 63.0517 151.564 62.5323 150.511 62.5323C149.457 62.5323 148.988 62.9377 148.988 63.5331C148.988 64.1284 149.407 64.3184 150.257 64.4958L152.693 64.9898C155.016 65.4838 156.005 66.4212 156.005 68.182C156.005 70.5887 153.81 72.1342 150.574 72.1342C147.338 72.1342 145.219 70.5887 145.054 68.22H148.721C148.836 69.0813 149.521 69.588 150.638 69.588C151.754 69.588 152.262 69.2207 152.262 68.6126C152.262 68.0046 151.907 67.8779 150.993 67.6879L148.798 67.2192C146.526 66.7506 145.333 65.5472 145.333 63.7737C145.359 61.4936 147.402 60.0116 150.549 60.0116V59.9862ZM168.708 71.8555H165.04V69.6894H164.964C164.763 70.4166 164.318 71.0532 163.704 71.4933C163.09 71.9334 162.344 72.1506 161.589 72.1088C161.01 72.1416 160.432 72.0502 159.892 71.8405C159.352 71.6309 158.863 71.3081 158.459 70.8938C158.055 70.4795 157.745 69.9834 157.549 69.4391C157.353 68.8948 157.277 68.3149 157.325 67.7386V60.2269H161.132V66.8646C161.132 68.2453 161.843 68.98 163.023 68.98C163.3 68.9806 163.573 68.9221 163.825 68.8084C164.078 68.6948 164.303 68.5287 164.485 68.3211C164.668 68.1136 164.804 67.8695 164.884 67.6052C164.965 67.3409 164.988 67.0624 164.952 66.7886V60.2269H168.759L168.708 71.8555ZM170.548 60.2269H174.228V62.469H174.304C174.506 61.7514 174.941 61.1209 175.54 60.6762C176.139 60.2315 176.869 59.9978 177.616 60.0116C178.376 59.9508 179.13 60.1778 179.73 60.6472C180.329 61.1166 180.73 61.7942 180.852 62.545H180.928C181.158 61.7862 181.635 61.1254 182.283 60.6667C182.931 60.208 183.713 59.9775 184.507 60.0116C185.024 59.9942 185.54 60.0858 186.02 60.2803C186.5 60.4748 186.933 60.768 187.292 61.1407C187.651 61.5135 187.928 61.9574 188.104 62.4438C188.28 62.9302 188.351 63.448 188.313 63.9638V71.8808H184.507V64.9771C184.507 63.7104 183.936 63.1277 182.87 63.1277C182.632 63.1257 182.397 63.1746 182.179 63.2711C181.962 63.3676 181.768 63.5095 181.611 63.6872C181.453 63.8649 181.336 64.0743 181.266 64.3011C181.196 64.528 181.176 64.7672 181.207 65.0025V71.8808H177.591V64.9265C177.591 63.7611 177.02 63.1277 175.979 63.1277C175.739 63.1278 175.501 63.1787 175.282 63.2772C175.063 63.3757 174.867 63.5194 174.707 63.699C174.548 63.8786 174.428 64.0898 174.357 64.3189C174.285 64.5479 174.263 64.7896 174.291 65.0278V71.8808H170.484L170.548 60.2269Z" fill="#1E1B1B"/>
<path d="M70.6035 57.2122C69.9578 55.7382 69.103 54.3645 68.0656 53.1333C66.532 51.259 64.6181 49.7301 62.45 48.6473C60.2818 47.5645 57.9085 46.9524 55.4862 46.8512C53.064 46.75 50.6477 47.162 48.3965 48.0601C46.1453 48.9582 44.1101 50.322 42.4249 52.0618C40.7397 53.8017 39.4428 55.878 38.6194 58.1542C37.796 60.4305 37.4649 62.8549 37.6478 65.2681C37.8307 67.6813 38.5235 70.0284 39.6806 72.1551C40.8377 74.2817 42.4329 76.1396 44.3611 77.6065C45.5984 78.5666 46.9655 79.347 48.4219 79.9246C50.4637 80.7599 52.6489 81.1902 54.8556 81.1914C59.4104 81.1813 63.7755 79.3689 66.9939 76.1515C70.2123 72.934 72.0215 68.574 72.0248 64.0272C72.0281 61.6819 71.5442 59.3613 70.6035 57.2122ZM54.8429 50.3338C56.8244 50.3336 58.7821 50.766 60.5786 51.6006C60.1405 51.7895 59.6799 51.9215 59.2081 51.9933C57.6557 52.2176 56.2175 52.9371 55.1083 54.0443C53.9991 55.1516 53.2783 56.5872 53.0536 58.1369C52.955 59.006 52.559 59.8146 51.9325 60.4261C51.306 61.0377 50.4874 61.4147 49.6147 61.4937C48.0622 61.7181 46.6241 62.4375 45.5148 63.5448C44.4056 64.652 43.6849 66.0876 43.4602 67.6374C43.3841 68.4638 43.0309 69.2404 42.4577 69.8415C41.4687 67.7555 41.0244 65.4537 41.1662 63.1503C41.308 60.8468 42.0312 58.6166 43.2685 56.6672C44.5058 54.7177 46.2171 53.1124 48.243 52.0007C50.2689 50.8889 52.5437 50.3068 54.8556 50.3085L54.8429 50.3338ZM44.3484 72.8943C44.5007 72.755 44.653 72.6283 44.8053 72.4763C45.9342 71.3837 46.6589 69.9414 46.861 68.3847C46.943 67.5097 47.3343 66.6925 47.965 66.0793C48.5719 65.4487 49.3888 65.0612 50.2619 64.9899C51.8143 64.7656 53.2525 64.0461 54.3617 62.9389C55.4709 61.8316 56.1917 60.396 56.4164 58.8463C56.4713 57.9311 56.8647 57.0688 57.5204 56.4268C58.1423 55.8085 58.9669 55.4351 59.8426 55.3754C61.2689 55.1795 62.599 54.5466 63.6496 53.564C64.8458 54.5547 65.8593 55.7464 66.6443 57.0855C66.5961 57.1506 66.5408 57.21 66.4794 57.2629C65.8737 57.899 65.0578 58.2949 64.1825 58.3776C62.6285 58.598 61.1881 59.3162 60.0782 60.4242C58.9683 61.5321 58.2488 62.9699 58.028 64.5212C57.9386 65.3933 57.5499 66.2076 56.9278 66.8263C56.3056 67.445 55.4884 67.83 54.6145 67.916C53.0575 68.1387 51.6139 68.8567 50.4983 69.9635C49.3827 71.0703 48.6545 72.5068 48.4219 74.0597C48.3536 74.6788 48.1406 75.2732 47.8001 75.7951C46.4981 75.0235 45.332 74.0435 44.3484 72.8943ZM54.8429 77.7839C53.5552 77.7853 52.2737 77.6062 51.0359 77.2518C51.4594 76.4639 51.7346 75.6053 51.8481 74.7184C51.937 73.8483 52.3239 73.0354 52.9435 72.417C53.563 71.7985 54.3773 71.4123 55.2489 71.3235C56.8037 71.1017 58.2447 70.3834 59.3564 69.2759C60.4682 68.1685 61.1908 66.7315 61.4162 65.1799C61.5051 64.3098 61.892 63.497 62.5115 62.8785C63.1311 62.26 63.9454 61.8739 64.817 61.7851C65.987 61.6332 67.1022 61.1983 68.0656 60.5183C68.6005 62.5425 68.6639 64.662 68.2508 66.7144C67.8378 68.7667 66.9592 70.6974 65.6826 72.3582C64.406 74.019 62.7653 75.3658 60.8863 76.2953C59.0073 77.2249 56.9399 77.7124 54.8429 77.7205V77.7839Z" fill="#1E1B1B"/>
</svg>
