<svg width="225" height="127" viewBox="0 0 225 127" fill="none" xmlns="http://www.w3.org/2000/svg">
<path d="M86.0815 72.6958C85.3308 72.7362 84.5883 72.5241 83.9737 72.0936C83.7169 71.9043 83.5103 71.6558 83.3717 71.3694C83.2332 71.0831 83.1669 70.7675 83.1785 70.45V58.8192C83.1724 58.77 83.1776 58.72 83.1938 58.6731C83.2101 58.6261 83.2369 58.5835 83.2721 58.5484C83.3074 58.5133 83.3503 58.4867 83.3975 58.4706C83.4447 58.4545 83.495 58.4493 83.5446 58.4554H85.665C85.9048 58.4554 86.0184 58.5808 86.0184 58.8192V69.5466C86.0184 70.0234 86.233 70.2618 86.6748 70.2618C86.862 70.2694 87.0494 70.2483 87.2301 70.199C87.4826 70.199 87.6214 70.2743 87.634 70.5001L87.8234 72.0685C87.8325 72.1142 87.8316 72.1613 87.8208 72.2067C87.8101 72.2521 87.7896 72.2946 87.7609 72.3314C87.7322 72.3683 87.6959 72.3986 87.6544 72.4203C87.6129 72.4421 87.5673 72.4547 87.5204 72.4574C87.056 72.6099 86.5707 72.6903 86.0815 72.6958Z" fill="#1E1B1B"/>
<path d="M98.0094 71.3535C96.9439 72.2286 95.6049 72.7073 94.2228 72.7073C92.8407 72.7073 91.5017 72.2286 90.4362 71.3535C89.4997 70.4137 88.9744 69.1444 88.9744 67.8216C88.9744 66.4988 89.4997 65.2295 90.4362 64.2897C91.5038 63.4192 92.842 62.9434 94.2228 62.9434C95.6037 62.9434 96.9418 63.4192 98.0094 64.2897C98.9243 65.2382 99.4351 66.5013 99.4351 67.8154C99.4351 69.1294 98.9243 70.3925 98.0094 71.341V71.3535ZM92.4305 69.6973C92.925 70.1426 93.5683 70.3892 94.2354 70.3892C94.9026 70.3892 95.5459 70.1426 96.0404 69.6973C96.4879 69.1859 96.7343 68.5308 96.7343 67.853C96.7343 67.1751 96.4879 66.5201 96.0404 66.0086C95.5459 65.5634 94.9026 65.3168 94.2354 65.3168C93.5683 65.3168 92.925 65.5634 92.4305 66.0086C91.983 66.5201 91.7365 67.1751 91.7365 67.853C91.7365 68.5308 91.983 69.1859 92.4305 69.6973Z" fill="#1E1B1B"/>
<path d="M111.111 63.2607C111.351 63.2607 111.464 63.3862 111.464 63.6245V72.6205C111.486 73.2277 111.372 73.8321 111.13 74.3898C110.887 74.9476 110.523 75.4447 110.063 75.845C109.043 76.71 107.73 77.1583 106.39 77.0996C105.18 77.1419 103.986 76.8134 102.97 76.1586C102.536 75.8754 102.165 75.5065 101.881 75.0748C101.596 74.6431 101.404 74.1579 101.316 73.6493C101.316 73.3984 101.316 73.2855 101.657 73.2855H103.778C103.868 73.2885 103.955 73.3174 104.029 73.3686C104.103 73.4198 104.16 73.4911 104.194 73.574C104.332 73.9551 104.606 74.2723 104.964 74.4648C105.401 74.6888 105.886 74.8009 106.378 74.7911C106.674 74.8072 106.971 74.7645 107.25 74.6654C107.53 74.5663 107.787 74.4128 108.006 74.2139C108.206 74.0058 108.362 73.7596 108.464 73.4901C108.566 73.2205 108.612 72.9333 108.599 72.6456V71.8551C107.84 72.4102 106.916 72.6973 105.974 72.6707C105.314 72.6945 104.657 72.5857 104.041 72.3506C103.425 72.1156 102.863 71.7593 102.389 71.3031C101.479 70.3673 100.97 69.1167 100.97 67.8151C100.97 66.5136 101.479 65.263 102.389 64.3272C102.865 63.8749 103.428 63.5221 104.044 63.2894C104.659 63.0566 105.315 62.9488 105.974 62.9721C106.943 62.9467 107.892 63.2522 108.662 63.8378V63.6371C108.656 63.589 108.661 63.5402 108.677 63.4943C108.692 63.4484 108.718 63.4065 108.752 63.3717C108.786 63.3369 108.827 63.31 108.873 63.2929C108.918 63.2759 108.967 63.2692 109.016 63.2732L111.111 63.2607ZM106.214 70.4374C106.539 70.4474 106.862 70.3863 107.161 70.2583C107.46 70.1304 107.727 69.9388 107.943 69.6971C108.362 69.1584 108.59 68.4964 108.59 67.8151C108.59 67.1338 108.362 66.4718 107.943 65.9331C107.727 65.6947 107.462 65.5059 107.166 65.3802C106.869 65.2545 106.548 65.1948 106.226 65.2054C105.897 65.1951 105.57 65.256 105.267 65.3838C104.964 65.5116 104.693 65.7033 104.472 65.9457C104.007 66.461 103.762 67.1361 103.79 67.8277C103.767 68.5125 104.006 69.1804 104.459 69.6971C104.681 69.9388 104.952 70.13 105.255 70.2578C105.558 70.3856 105.885 70.4468 106.214 70.4374Z" fill="#1E1B1B"/>
<path d="M122.357 71.3532C121.289 72.2238 119.951 72.6996 118.57 72.6996C117.19 72.6996 115.851 72.2238 114.784 71.3532C113.868 70.4027 113.357 69.1375 113.357 67.8214C113.357 66.5053 113.868 65.24 114.784 64.2895C115.852 63.4211 117.19 62.9468 118.57 62.9468C119.951 62.9468 121.288 63.4211 122.357 64.2895C123.272 65.2379 123.783 66.5011 123.783 67.8151C123.783 69.1291 123.272 70.3923 122.357 71.3407V71.3532ZM116.765 69.6971C117.007 69.9259 117.293 70.1047 117.605 70.2232C117.917 70.3416 118.249 70.3974 118.583 70.3872C118.915 70.3957 119.245 70.3392 119.555 70.2207C119.864 70.1023 120.147 69.9244 120.388 69.6971C120.828 69.1822 121.07 68.5285 121.07 67.8527C121.07 67.177 120.828 66.5233 120.388 66.0084C120.147 65.7811 119.864 65.6031 119.555 65.4847C119.245 65.3663 118.915 65.3098 118.583 65.3183C118.249 65.3081 117.917 65.3638 117.605 65.4823C117.293 65.6007 117.007 65.7796 116.765 66.0084C116.325 66.5233 116.084 67.177 116.084 67.8527C116.084 68.5285 116.325 69.1822 116.765 69.6971Z" fill="#1E1B1B"/>
<path d="M128.34 61.128C128.006 61.4183 127.578 61.5783 127.134 61.5783C126.691 61.5783 126.263 61.4183 125.929 61.128C125.778 60.9861 125.657 60.8149 125.575 60.6251C125.492 60.4352 125.45 60.2306 125.45 60.0239C125.45 59.8171 125.492 59.6125 125.575 59.4227C125.657 59.2328 125.778 59.0617 125.929 58.9198C126.266 58.6367 126.693 58.4814 127.134 58.4814C127.576 58.4814 128.003 58.6367 128.34 58.9198C128.491 59.0617 128.612 59.2328 128.694 59.4227C128.776 59.6125 128.819 59.8171 128.819 60.0239C128.819 60.2306 128.776 60.4352 128.694 60.6251C128.612 60.8149 128.491 60.9861 128.34 61.128ZM128.605 72.696C127.855 72.7326 127.113 72.5208 126.497 72.0937C126.244 71.9017 126.041 71.6523 125.905 71.3664C125.769 71.0805 125.703 70.7663 125.714 70.4501V63.6248C125.708 63.5755 125.714 63.5255 125.73 63.4786C125.746 63.4317 125.773 63.3891 125.808 63.354C125.843 63.3189 125.886 63.2923 125.933 63.2761C125.981 63.26 126.031 63.2548 126.08 63.2609H128.201C128.441 63.2609 128.554 63.3864 128.554 63.6248V69.5468C128.554 70.0235 128.769 70.2619 129.198 70.2619C129.389 70.2688 129.581 70.2476 129.766 70.1992C130.018 70.1992 130.157 70.2745 130.17 70.5003L130.359 72.0687C130.368 72.1144 130.367 72.1615 130.357 72.2069C130.346 72.2522 130.326 72.2948 130.297 72.3316C130.268 72.3685 130.232 72.3988 130.19 72.4205C130.149 72.4423 130.103 72.4549 130.056 72.4576C129.588 72.611 129.098 72.6914 128.605 72.696Z" fill="#1E1B1B"/>
<path d="M138.16 62.9597C138.822 62.9337 139.483 63.0402 140.103 63.273C140.723 63.5058 141.29 63.8601 141.77 64.3148C142.662 65.267 143.159 66.5201 143.159 67.8216C143.159 69.123 142.662 70.3761 141.77 71.3283C141.292 71.7871 140.726 72.1448 140.106 72.3799C139.485 72.6149 138.823 72.7225 138.16 72.6959C137.215 72.7168 136.289 72.4305 135.522 71.8804V76.4097C135.522 76.6481 135.396 76.761 135.156 76.761H133.035C132.987 76.77 132.937 76.7672 132.89 76.7527C132.843 76.7382 132.8 76.7126 132.766 76.678C132.731 76.6434 132.705 76.6009 132.69 76.5541C132.676 76.5074 132.673 76.4578 132.682 76.4097V66.1215C132.697 66.0209 132.688 65.9182 132.656 65.8216C132.624 65.7251 132.569 65.6373 132.497 65.5654C132.424 65.4935 132.336 65.4394 132.239 65.4074C132.142 65.3754 132.039 65.3665 131.937 65.3812H131.521C131.243 65.3812 131.104 65.2809 131.104 65.0801V63.5996C131.098 63.508 131.123 63.4169 131.176 63.3416C131.229 63.2662 131.306 63.2112 131.395 63.1856C131.831 63.0278 132.293 62.9512 132.758 62.9597C133.221 62.919 133.686 63.0166 134.093 63.2401C134.5 63.4637 134.83 63.8029 135.042 64.2144C135.449 63.8056 135.935 63.4835 136.471 63.2677C137.007 63.052 137.582 62.9472 138.16 62.9597ZM136.191 69.6973C136.416 69.9311 136.686 70.1171 136.986 70.2443C137.285 70.3714 137.607 70.4369 137.933 70.4369C138.258 70.4369 138.58 70.3714 138.88 70.2443C139.179 70.1171 139.449 69.9311 139.675 69.6973C140.149 69.1717 140.398 68.483 140.369 67.7776C140.402 67.0717 140.152 66.3815 139.675 65.858C139.449 65.6242 139.179 65.4381 138.88 65.311C138.58 65.1839 138.258 65.1184 137.933 65.1184C137.607 65.1184 137.285 65.1839 136.986 65.311C136.686 65.4381 136.416 65.6242 136.191 65.858C135.732 66.3907 135.493 67.0767 135.522 67.7776C135.496 68.478 135.735 69.1627 136.191 69.6973Z" fill="#1E1B1B"/>
<path d="M149.115 72.696C147.982 72.7423 146.859 72.4728 145.872 71.9181C145.476 71.6809 145.138 71.3581 144.885 70.9737C144.631 70.5892 144.468 70.153 144.407 69.6973C144.407 69.4464 144.496 69.3209 144.774 69.3209H146.629C146.717 69.3243 146.803 69.3519 146.876 69.4006C146.95 69.4493 147.008 69.5173 147.045 69.5969C147.311 70.2744 148.005 70.6132 149.115 70.6132C149.503 70.6308 149.889 70.5532 150.239 70.3874C150.36 70.3331 150.463 70.2473 150.539 70.139C150.615 70.0307 150.659 69.9041 150.668 69.7726C150.668 69.4464 150.466 69.2205 150.062 69.07C149.583 68.9115 149.088 68.8063 148.585 68.7563C147.99 68.6893 147.4 68.5846 146.818 68.4426C146.253 68.3154 145.738 68.0226 145.341 67.602C145.108 67.3162 144.936 66.9856 144.836 66.6309C144.737 66.2761 144.711 65.9048 144.762 65.54C144.813 65.1752 144.939 64.8247 145.132 64.5103C145.325 64.196 145.581 63.9244 145.884 63.7126C146.794 63.1365 147.861 62.8559 148.939 62.9096C149.982 62.8745 151.014 63.131 151.918 63.6498C152.282 63.8549 152.595 64.1381 152.836 64.4789C153.076 64.8196 153.236 65.2093 153.306 65.6196C153.306 65.8706 153.192 65.996 152.965 65.996H151.097C151.018 66.0007 150.94 65.9816 150.873 65.9413C150.805 65.901 150.751 65.8414 150.718 65.7702C150.594 65.473 150.359 65.2349 150.062 65.1052C149.728 64.9313 149.354 64.8449 148.977 64.8543C148.607 64.8343 148.238 64.9077 147.904 65.0676C147.786 65.1127 147.685 65.1918 147.613 65.2946C147.541 65.3975 147.501 65.5194 147.5 65.6447C147.508 65.8163 147.571 65.9808 147.68 66.114C147.789 66.2473 147.938 66.3422 148.106 66.385C148.59 66.5666 149.094 66.6929 149.608 66.7614C150.198 66.8386 150.784 66.9475 151.362 67.0876C151.928 67.2149 152.442 67.5077 152.839 67.9282C153.051 68.1599 153.215 68.4311 153.321 68.7261C153.427 69.0212 153.474 69.3342 153.457 69.6471C153.468 70.0808 153.366 70.5099 153.16 70.8926C152.954 71.2752 152.652 71.5983 152.284 71.8302C151.34 72.432 150.235 72.734 149.115 72.696Z" fill="#1E1B1B"/>
<path d="M166.799 72.0685C166.806 72.113 166.804 72.1586 166.793 72.2024C166.783 72.2462 166.763 72.2874 166.736 72.3237C166.709 72.3599 166.675 72.3904 166.636 72.4134C166.597 72.4363 166.554 72.4513 166.509 72.4574C166.048 72.607 165.567 72.6873 165.082 72.6958C164.603 72.7452 164.118 72.6707 163.676 72.4794C163.234 72.2882 162.849 71.9868 162.558 71.6043C161.666 72.3662 160.514 72.7572 159.339 72.6958C158.794 72.7208 158.25 72.6321 157.741 72.4355C157.232 72.2388 156.771 71.9386 156.386 71.5541C156.004 71.1511 155.707 70.6757 155.514 70.1561C155.321 69.6365 155.235 69.0835 155.262 68.5303V63.6246C155.262 63.3862 155.376 63.2607 155.616 63.2607H157.736C157.976 63.2607 158.09 63.3862 158.09 63.6246V68.1539C158.067 68.7182 158.261 69.2701 158.633 69.6972C158.818 69.8928 159.044 70.0467 159.294 70.1484C159.544 70.2501 159.814 70.2973 160.084 70.2869C160.361 70.2989 160.637 70.2563 160.897 70.1616C161.157 70.0668 161.395 69.9218 161.599 69.7348C161.791 69.5378 161.941 69.3036 162.038 69.0468C162.136 68.79 162.18 68.516 162.167 68.2418V63.6246C162.167 63.3862 162.28 63.2607 162.52 63.2607H164.666C164.906 63.2607 165.019 63.3862 165.019 63.6246V69.5341C165.019 70.0234 165.234 70.2618 165.65 70.2618C165.846 70.2693 166.041 70.2482 166.231 70.199C166.279 70.1857 166.329 70.1834 166.377 70.1921C166.426 70.2008 166.472 70.2203 166.513 70.2493C166.553 70.2783 166.586 70.3159 166.609 70.3594C166.632 70.4028 166.645 70.4509 166.647 70.5002L166.799 72.0685Z" fill="#1E1B1B"/>
<path d="M186.855 72.0686C186.866 72.1135 186.867 72.1604 186.858 72.2058C186.849 72.2512 186.83 72.294 186.802 72.3312C186.774 72.3684 186.739 72.399 186.698 72.4208C186.657 72.4427 186.611 72.4552 186.565 72.4576C186.096 72.6092 185.606 72.6896 185.113 72.6959C184.363 72.7344 183.621 72.5225 183.005 72.0937C182.739 71.91 182.523 71.6639 182.375 71.3772C182.228 71.0905 182.154 70.7721 182.16 70.4501V67.5016C182.186 66.939 181.997 66.3874 181.629 65.9584C181.452 65.7623 181.234 65.6077 180.989 65.5057C180.745 65.4037 180.481 65.357 180.216 65.3687C179.977 65.3597 179.739 65.4048 179.521 65.5004C179.302 65.596 179.108 65.7398 178.954 65.9208C178.62 66.3412 178.45 66.8666 178.474 67.4013V72.031C178.474 72.2694 178.36 72.3948 178.121 72.3948H175.987C175.938 72.4009 175.888 72.3957 175.84 72.3796C175.793 72.3635 175.75 72.3368 175.715 72.3018C175.68 72.2667 175.653 72.224 175.637 72.1771C175.62 72.1302 175.615 72.0802 175.621 72.031V67.5016C175.649 66.9452 175.474 66.3974 175.129 65.9584C174.975 65.774 174.782 65.6255 174.564 65.5236C174.346 65.4217 174.108 65.3688 173.867 65.3687C173.609 65.3584 173.353 65.4022 173.113 65.4973C172.874 65.5925 172.658 65.7368 172.479 65.9208C172.118 66.3278 171.932 66.8594 171.961 67.4013V72.031C171.967 72.0802 171.962 72.1302 171.946 72.1771C171.929 72.224 171.903 72.2667 171.867 72.3018C171.832 72.3368 171.789 72.3635 171.742 72.3796C171.695 72.3957 171.645 72.4009 171.595 72.3948H169.538C169.298 72.3948 169.184 72.2694 169.184 72.031V66.1215C169.199 66.0209 169.19 65.9182 169.158 65.8216C169.126 65.7251 169.071 65.6373 168.999 65.5654C168.927 65.4935 168.838 65.4394 168.741 65.4074C168.644 65.3754 168.541 65.3665 168.44 65.3813H168.023C167.745 65.3813 167.606 65.2809 167.606 65.0801V63.5996C167.6 63.508 167.625 63.4169 167.678 63.3416C167.731 63.2663 167.808 63.2112 167.897 63.1856C168.333 63.0278 168.795 62.9513 169.26 62.9597C169.706 62.922 170.153 63.0103 170.551 63.2146C170.948 63.4188 171.28 63.7306 171.507 64.114C171.932 63.7128 172.437 63.4033 172.989 63.2047C173.54 63.0061 174.127 62.9227 174.713 62.9597C175.281 62.9322 175.849 63.0382 176.368 63.2693C176.888 63.5003 177.346 63.8499 177.704 64.2897C178.122 63.8384 178.635 63.485 179.207 63.255C179.779 63.025 180.395 62.9241 181.011 62.9597C181.562 62.9341 182.112 63.0224 182.627 63.2189C183.142 63.4154 183.61 63.7159 184.002 64.1015C184.386 64.5036 184.683 64.9789 184.876 65.4987C185.069 66.0185 185.154 66.5719 185.126 67.1252V69.5467C185.126 70.0235 185.34 70.2619 185.744 70.2619C185.94 70.271 186.136 70.2498 186.325 70.1992C186.586 70.1992 186.724 70.2995 186.741 70.5003L186.855 72.0686Z" fill="#1E1B1B"/>
<path d="M38.8507 61.6299C39.782 57.9094 41.9386 54.6056 44.9773 52.2444C48.016 49.8833 51.762 48.6006 55.6189 48.6006C59.4758 48.6006 63.2219 49.8833 66.2606 52.2444C69.2993 54.6056 71.4559 57.9094 72.3871 61.6299H70.8725C68.3174 61.5925 65.8147 62.3516 63.7159 63.8005C63.5948 63.8877 63.4683 63.9673 63.3372 64.0389H63.1605C63.0295 63.9673 62.903 63.8877 62.7819 63.8005C60.6644 62.3851 58.1706 61.6292 55.6189 61.6292C53.0673 61.6292 50.5735 62.3851 48.456 63.8005C48.3349 63.8877 48.2084 63.9673 48.0774 64.0389H47.9007C47.7696 63.9673 47.6431 63.8877 47.522 63.8005C45.4231 62.3516 42.9204 61.5925 40.3654 61.6299H38.8507ZM68.1462 69.4967C68.9237 68.8948 69.8873 68.5799 70.8725 68.6059H72.9046V64.5784H70.8725C69.1373 64.5575 67.4417 65.0944 66.0383 66.1091C65.2486 66.6879 64.2932 67.0001 63.312 67.0001C62.3308 67.0001 61.3754 66.6879 60.5857 66.1091C59.1467 65.1134 57.4354 64.5796 55.682 64.5796C53.9287 64.5796 52.2174 65.1134 50.7784 66.1091C49.9887 66.6879 49.0333 67.0001 48.0521 67.0001C47.0709 67.0001 46.1155 66.6879 45.3258 66.1091C43.9051 65.0814 42.1852 64.5439 40.4285 64.5784H38.3333V68.6059H40.3654C41.3505 68.5799 42.3142 68.8948 43.0917 69.4967C44.5281 70.4931 46.2375 71.0273 47.989 71.0273C49.7406 71.0273 51.4499 70.4931 52.8863 69.4967C53.6648 68.8966 54.6278 68.582 55.6126 68.6059C56.5981 68.5778 57.5624 68.8929 58.339 69.4967C59.778 70.4924 61.4892 71.0262 63.2426 71.0262C64.9959 71.0262 66.7072 70.4924 68.1462 69.4967ZM68.1462 76.6985C68.9237 76.0966 69.8873 75.7817 70.8725 75.8077H72.9046V71.7802H70.8725C69.1373 71.7593 67.4417 72.2962 66.0383 73.3109C65.2486 73.8897 64.2932 74.2019 63.312 74.2019C62.3308 74.2019 61.3754 73.8897 60.5857 73.3109C59.1467 72.3151 57.4354 71.7814 55.682 71.7814C53.9287 71.7814 52.2174 72.3151 50.7784 73.3109C49.9887 73.8897 49.0333 74.2019 48.0521 74.2019C47.0709 74.2019 46.1155 73.8897 45.3258 73.3109C43.9051 72.2832 42.1852 71.7457 40.4285 71.7802H38.3333V75.8077H40.3654C41.3505 75.7817 42.3142 76.0966 43.0917 76.6985C44.5281 77.6949 46.2375 78.2291 47.989 78.2291C49.7406 78.2291 51.4499 77.6949 52.8863 76.6985C53.6648 76.0984 54.6278 75.7838 55.6126 75.8077C56.5981 75.7796 57.5624 76.0947 58.339 76.6985C59.778 77.6942 61.4892 78.228 63.2426 78.228C64.9959 78.228 66.7072 77.6942 68.1462 76.6985Z" fill="#1E1B1B"/>
</svg>
