<svg width="226" height="128" viewBox="0 0 226 128" fill="none" xmlns="http://www.w3.org/2000/svg">
<path d="M78.4561 56.756H82.5295V73.2235H78.4561V56.756ZM84.1538 67.0292C84.1538 62.9504 86.6917 60.5056 90.4986 60.5056C94.3056 60.5056 96.8435 62.9504 96.8435 67.0292C96.8435 71.1081 94.3944 73.5782 90.4986 73.5782C86.6029 73.5782 84.1538 71.1968 84.1538 67.0292ZM92.8082 67.0292C92.8082 64.7871 91.9326 63.4697 90.5367 63.4697C89.1408 63.4697 88.2779 64.7364 88.2779 67.0292C88.2779 69.322 89.1408 70.5761 90.5367 70.5761C91.9326 70.5761 92.8335 69.322 92.8335 67.0419L92.8082 67.0292ZM98.4678 74.0722H102.402C102.581 74.495 102.893 74.8477 103.292 75.0764C103.691 75.3051 104.154 75.3973 104.61 75.339C106.17 75.339 106.983 74.5029 106.983 73.2615V70.9814H106.995C106.659 71.6914 106.116 72.2832 105.436 72.6789C104.757 73.0745 103.973 73.2556 103.188 73.1982C100.206 73.1982 98.2267 70.9308 98.2267 67.0292C98.2267 63.1277 100.117 60.6956 103.303 60.6956C104.107 60.6526 104.906 60.8598 105.587 61.2886C106.269 61.7173 106.801 62.3466 107.11 63.0897H106.995V60.7969H111.031V73.1349C111.031 76.1117 108.391 77.9738 104.508 77.9738C100.98 77.9611 98.7216 76.3524 98.4932 74.0849L98.4678 74.0722ZM106.995 67.0292C106.995 65.0405 106.082 63.7864 104.635 63.7864C103.188 63.7864 102.3 65.0531 102.3 67.0292C102.3 69.0053 103.176 70.1707 104.635 70.1707C106.094 70.1707 106.995 69.094 106.995 67.0292ZM112.642 67.0292C112.642 62.9504 115.18 60.5056 118.987 60.5056C122.794 60.5056 125.332 62.9504 125.332 67.0292C125.332 71.1081 122.87 73.5782 118.987 73.5782C115.104 73.5782 112.668 71.1968 112.668 67.0292H112.642ZM121.297 67.0292C121.297 64.7871 120.408 63.4697 119.025 63.4697C117.642 63.4697 116.766 64.7364 116.766 67.0292C116.766 69.322 117.629 70.5761 119.025 70.5761C120.421 70.5761 121.322 69.322 121.322 67.0419L121.297 67.0292ZM126.982 57.7948C126.964 57.3806 127.071 56.9706 127.288 56.6175C127.506 56.2644 127.825 55.9843 128.203 55.8134C128.581 55.6425 129.002 55.5885 129.412 55.6584C129.821 55.7282 130.2 55.9188 130.5 56.2055C130.8 56.4921 131.007 56.8619 131.095 57.2671C131.183 57.6723 131.147 58.0945 130.993 58.4793C130.838 58.864 130.572 59.1939 130.228 59.4263C129.884 59.6587 129.478 59.7832 129.063 59.7835C128.797 59.7903 128.533 59.7443 128.286 59.6483C128.038 59.5523 127.812 59.4083 127.621 59.2244C127.43 59.0406 127.277 58.8207 127.172 58.5774C127.066 58.3342 127.01 58.0724 127.007 57.8074L126.982 57.7948ZM126.982 60.7842H131.106V73.2742H127.045L126.982 60.7842ZM145.94 67.0292C145.94 71.0954 144.113 73.4515 141.004 73.4515C140.208 73.5006 139.416 73.3045 138.735 72.89C138.054 72.4754 137.518 71.8623 137.197 71.1334H137.121V77.2897H133.047V60.8223H137.095V63.0517H137.172C137.481 62.3085 138.013 61.6786 138.694 61.2479C139.375 60.8172 140.173 60.6067 140.978 60.6449C144.176 60.6196 146.016 62.963 146.016 67.0419L145.94 67.0292ZM141.791 67.0292C141.791 65.0531 140.864 63.7737 139.43 63.7737C137.996 63.7737 137.095 65.0405 137.083 67.0292C137.07 69.018 137.996 70.2721 139.43 70.2721C140.864 70.2721 141.867 69.094 141.867 67.0419L141.791 67.0292ZM152.894 60.4929C156.308 60.4929 158.427 62.1016 158.452 64.6858H154.734C154.734 63.7864 153.986 63.229 152.869 63.229C151.752 63.229 151.219 63.6597 151.219 64.3058C151.219 64.9518 151.689 65.1545 152.628 65.3445L155.242 65.8765C157.78 66.4085 158.795 67.4219 158.795 69.3093C158.795 71.8428 156.447 73.5655 152.958 73.5655C149.468 73.5655 147.196 71.8935 147.032 69.3473H150.978C151.092 70.2721 151.828 70.8167 153.021 70.8167C154.214 70.8167 154.772 70.4367 154.772 69.7654C154.772 69.094 154.392 68.98 153.414 68.7773L151.054 68.2833C148.605 67.7639 147.323 66.4845 147.323 64.5718C147.4 62.089 149.531 60.5056 152.97 60.5056L152.894 60.4929ZM172.436 73.2615H168.49V70.9181H168.414C168.193 71.6997 167.712 72.3829 167.05 72.855C166.388 73.327 165.584 73.5598 164.772 73.5149C164.158 73.5348 163.548 73.4251 162.98 73.1928C162.412 72.9606 161.9 72.6111 161.477 72.1673C161.054 71.7235 160.73 71.1954 160.526 70.6178C160.321 70.0401 160.242 69.4258 160.292 68.8153V60.7969H164.366V67.9413C164.366 69.4107 165.14 70.2087 166.409 70.2087C166.707 70.2065 167 70.1405 167.27 70.0152C167.54 69.89 167.78 69.7084 167.974 69.4826C168.167 69.2569 168.31 68.9923 168.393 68.7067C168.475 68.4212 168.495 68.1213 168.452 67.8273V60.7969H172.513L172.436 73.2615ZM174.403 60.7842H178.363V63.191H178.451C178.67 62.42 179.139 61.7432 179.784 61.2664C180.429 60.7897 181.215 60.5399 182.017 60.5562C182.823 60.4863 183.626 60.7189 184.269 61.2085C184.912 61.6981 185.349 62.4096 185.494 63.2037H185.672C185.925 62.4053 186.436 61.7129 187.125 61.2342C187.813 60.7554 188.641 60.5171 189.479 60.5562C190.036 60.5351 190.591 60.6316 191.108 60.8394C191.625 61.0473 192.093 61.3618 192.479 61.7624C192.866 62.163 193.164 62.6406 193.353 63.164C193.543 63.6874 193.619 64.2449 193.578 64.7998V73.2742H189.479V65.8385C189.479 64.5718 188.882 63.8624 187.728 63.8624C187.471 63.8582 187.217 63.9093 186.983 64.0123C186.749 64.1153 186.539 64.2676 186.369 64.4589C186.199 64.6503 186.073 64.876 185.998 65.1207C185.924 65.3653 185.904 65.6232 185.938 65.8765V73.2742H182.055V65.8005C182.055 64.5338 181.433 63.8624 180.317 63.8624C180.058 63.8603 179.802 63.9136 179.565 64.0185C179.329 64.1235 179.117 64.2777 178.946 64.4708C178.774 64.664 178.645 64.8916 178.569 65.1384C178.492 65.3853 178.47 65.6455 178.502 65.9018V73.2742H174.429L174.403 60.7842Z" fill="#1E1B1B"/>
<path d="M70.3981 57.833C70.3982 55.3119 69.6355 52.8494 68.2099 50.7682C66.7843 48.6871 64.7623 47.0842 62.4087 46.1697C60.0551 45.2551 57.4796 45.0714 55.0197 45.6427C52.5597 46.214 50.33 47.5136 48.6225 49.3713H32.7856V82.7369H66.2231V67.1435C67.5355 65.9717 68.5857 64.5369 69.3051 62.9326C70.0245 61.3284 70.3969 59.5907 70.3981 57.833ZM63.9644 57.833C63.9669 59.0412 63.6103 60.2229 62.9397 61.2286C62.2692 62.2343 61.3148 63.0189 60.1974 63.4829C59.08 63.947 57.8498 64.0697 56.6624 63.8356C55.4751 63.6014 54.3841 63.0209 53.5274 62.1675C52.6708 61.3141 52.087 60.2262 51.8499 59.0415C51.6129 57.8568 51.7333 56.6285 52.1958 55.5121C52.6584 54.3957 53.4423 53.4414 54.4485 52.7699C55.4546 52.0985 56.6376 51.7401 57.8479 51.7401C59.4679 51.7401 61.0217 52.3816 62.1684 53.5239C63.3151 54.6662 63.961 56.2159 63.9644 57.833ZM59.7894 76.3146H39.2193V55.7936H45.4881C45.367 56.4668 45.3033 57.1491 45.2977 57.833C45.3011 61.1546 46.6244 64.3392 48.9773 66.6879C51.3302 69.0367 54.5204 70.3576 57.8479 70.361C58.4984 70.3576 59.1477 70.3025 59.7894 70.1963V76.3146Z" fill="#1E1B1B"/>
</svg>
