<svg width="23" height="16" viewBox="0 0 23 16" xmlns="http://www.w3.org/2000/svg">
<path d="M1.15417 7.021C0.601884 7.02215 0.155102 7.47079 0.156252 8.02308C0.157402 8.57536 0.606049 9.02214 1.15833 9.02099L1.15417 7.021ZM21.9938 8.68471C22.3835 8.29338 22.3822 7.66021 21.9909 7.2705L15.6137 0.919808C15.2223 0.530097 14.5892 0.531416 14.1995 0.922752C13.8098 1.31409 13.8111 1.94725 14.2024 2.33696L19.871 7.98203L14.226 13.6506C13.8363 14.042 13.8376 14.6751 14.2289 15.0649C14.6202 15.4546 15.2534 15.4532 15.6431 15.0619L21.9938 8.68471ZM1.15833 9.02099L21.2873 8.97908L21.2832 6.97908L1.15417 7.021L1.15833 9.02099Z" fill="#1E1B1B"/>
</svg>
