<svg width="23" height="16" viewBox="0 0 23 16" fill="none" xmlns="http://www.w3.org/2000/svg">
<path d="M1.14984 7.06692C0.597564 7.07059 0.152839 7.52128 0.156516 8.07355C0.160193 8.62583 0.61088 9.07055 1.16315 9.06687L1.14984 7.06692ZM21.9969 8.63526C22.3848 8.24214 22.3806 7.60899 21.9875 7.22108L15.5813 0.899627C15.1882 0.511711 14.555 0.515927 14.1671 0.909043C13.7792 1.30216 13.7834 1.93531 14.1765 2.32323L19.8709 7.94229L14.2518 13.6367C13.8639 14.0298 13.8681 14.6629 14.2612 15.0509C14.6544 15.4388 15.2875 15.4346 15.6754 15.0414L21.9969 8.63526ZM1.16315 9.06687L21.2917 8.93285L21.2784 6.9329L1.14984 7.06692L1.16315 9.06687Z" fill="#1E1B1B"/>
</svg>
