<svg width="54" height="54" viewBox="0 0 54 54" fill="none" xmlns="http://www.w3.org/2000/svg">
<g filter="url(#filter0_d_482_1511)">
<path d="M26.9999 7.66675C18.5452 7.66675 11.6665 14.5455 11.6665 23.0001C11.6665 31.4548 18.5452 38.3335 26.9999 38.3335C35.4545 38.3335 42.3332 31.4548 42.3332 23.0001C42.3332 14.5455 35.4545 7.66675 26.9999 7.66675ZM34.8444 13.3943C35.0166 13.2025 35.2599 13.0892 35.5182 13.0789C35.7409 13.0537 36.0274 13.1622 36.2145 13.34C38.2023 15.2221 39.5537 17.6179 40.1189 20.2683C40.2088 20.6913 40.0047 21.1218 39.621 21.3202C38.6832 21.805 37.5696 22.0399 36.5027 22.0399C35.112 22.0399 33.7943 21.6411 33.0306 20.8775C31.406 19.2538 32.0835 16.4565 34.8444 13.3943ZM19.1554 32.7556C18.9832 32.9474 18.7399 33.0616 18.4816 33.072C18.4704 33.0729 18.4573 33.0729 18.4441 33.0729C18.199 33.0729 17.9631 32.9792 17.7853 32.8108C15.7975 30.9287 14.4461 28.5329 13.8809 25.8816C13.791 25.4586 13.9951 25.0281 14.3788 24.8297C16.5388 23.7151 19.6197 23.9228 20.9692 25.2723C22.592 26.8962 21.9144 29.6935 19.1554 32.7556ZM20.9691 20.8776C20.2054 21.6412 18.8877 22.04 17.497 22.04C16.4301 22.04 15.3183 21.805 14.3787 21.3203C13.995 21.1219 13.7909 20.6914 13.8808 20.2684C14.4461 17.618 15.7974 15.2222 17.7852 13.3401C17.9724 13.1623 18.2476 13.0519 18.4815 13.079C18.7398 13.0894 18.9831 13.2026 19.1553 13.3944C21.9162 16.4565 22.5938 19.2538 20.9691 20.8776ZM31.084 35.7795C29.7569 36.2025 28.383 36.4168 26.9999 36.4168C25.6167 36.4168 24.2427 36.2026 22.9158 35.7795C22.4946 35.6447 22.2195 35.2404 22.2494 34.7997C22.489 31.3509 24.531 28.7501 26.9999 28.7501C29.4687 28.7501 31.5107 31.3509 31.7504 34.7996C31.7803 35.2404 31.5052 35.6447 31.084 35.7795ZM23.1665 23.0001C23.1665 20.886 24.8867 19.1667 26.9999 19.1667C29.1131 19.1667 30.8332 20.8859 30.8332 23.0001C30.8332 25.1143 29.1131 26.8335 26.9999 26.8335C24.8867 26.8335 23.1665 25.1142 23.1665 23.0001ZM31.7504 11.2764C31.5107 14.7242 29.4687 17.325 26.9999 17.325C24.531 17.325 22.489 14.7242 22.2494 11.2764C22.2195 10.8356 22.4927 10.4313 22.9139 10.2975C25.568 9.44952 28.4318 9.44952 31.0859 10.2975C31.5071 10.4313 31.7803 10.8356 31.7504 11.2764ZM40.1189 25.7291C39.5536 28.3804 38.2023 30.7763 36.2145 32.6583C36.0367 32.8268 35.8009 32.9204 35.5557 32.9204C35.5426 32.9204 35.5295 32.9204 35.5182 32.9195C35.2599 32.9092 35.0166 32.796 34.8444 32.6041C32.0836 29.542 31.406 26.7437 33.0306 25.12C34.3802 23.7695 37.4592 23.5645 39.621 24.6773C40.0047 24.8756 40.2088 25.3061 40.1189 25.7291Z" fill="white"/>
<path d="M27 0C14.317 0 4 10.318 4 23C4 35.682 14.317 46 27 46C39.683 46 50 35.682 50 23C50 10.318 39.683 0 27 0ZM27 40.25C17.4878 40.25 9.75 32.5113 9.75 23C9.75 13.4887 17.4878 5.75 27 5.75C36.5122 5.75 44.25 13.4887 44.25 23C44.25 32.5113 36.5122 40.25 27 40.25Z" fill="white"/>
</g>
<defs>
<filter id="filter0_d_482_1511" x="0" y="0" width="54" height="54" filterUnits="userSpaceOnUse" color-interpolation-filters="sRGB">
<feFlood flood-opacity="0" result="BackgroundImageFix"/>
<feColorMatrix in="SourceAlpha" type="matrix" values="0 0 0 0 0 0 0 0 0 0 0 0 0 0 0 0 0 0 127 0" result="hardAlpha"/>
<feOffset dy="4"/>
<feGaussianBlur stdDeviation="2"/>
<feComposite in2="hardAlpha" operator="out"/>
<feColorMatrix type="matrix" values="0 0 0 0 0 0 0 0 0 0 0 0 0 0 0 0 0 0 0.25 0"/>
<feBlend mode="normal" in2="BackgroundImageFix" result="effect1_dropShadow_482_1511"/>
<feBlend mode="normal" in="SourceGraphic" in2="effect1_dropShadow_482_1511" result="shape"/>
</filter>
</defs>
</svg>
